<?xml version="1.0" encoding="UTF-8" standalone="no"?><!DOCTYPE svg PUBLIC "-//W3C//DTD SVG 1.1//EN" "http://www.w3.org/Graphics/SVG/1.1/DTD/svg11.dtd"><svg width="100%" height="100%" viewBox="0 0 108 144" version="1.1" xmlns="http://www.w3.org/2000/svg" xmlns:xlink="http://www.w3.org/1999/xlink" xml:space="preserve" xmlns:serif="http://www.serif.com/" style="fill-rule:evenodd;clip-rule:evenodd;stroke-linecap:round;stroke-linejoin:round;stroke-miterlimit:1.5;"><rect id="HangmanWin" x="0" y="0" width="108" height="144" style="fill:none;"/><g id="HangmanWin1" serif:id="HangmanWin"><g><path d="M102.929,130.244l-98.249,0" style="fill:none;stroke:#000;stroke-width:1.2px;"/><path d="M20.274,130.244l0,-115.56" style="fill:none;stroke:#000;stroke-width:1.2px;"/><path d="M20.274,14.684l44.627,-0" style="fill:none;stroke:#000;stroke-width:1.2px;"/><path d="M64.852,14.684l-0,15.321" style="fill:none;stroke:#000;stroke-width:1.2px;"/></g><circle cx="79.594" cy="60.56" r="9.225" style="fill:none;stroke:#000;stroke-width:1.2px;"/><path d="M79.594,69.785l-0,34.988" style="fill:none;stroke:#000;stroke-width:1.2px;"/><path d="M79.486,80.468l18.665,-7.267" style="fill:none;stroke:#000;stroke-width:1.2px;"/><path d="M79.701,80.468l-18.665,-7.267" style="fill:none;stroke:#000;stroke-width:1.2px;"/><path d="M79.486,104.773l-18.558,25.471l18.558,-25.471Z" style="fill:none;stroke:#000;stroke-width:1.2px;"/><path d="M79.701,104.773l18.558,25.471l-18.558,-25.471Z" style="fill:none;stroke:#000;stroke-width:1.2px;"/><path d="M74.929,63.79c4.511,4.306 7.616,3.504 10.509,-0.257" style="fill:none;stroke:#000;stroke-width:0.6px;"/><ellipse cx="76.57" cy="57.407" rx="1.64" ry="1.56" style="fill:#ebebeb;stroke:#000;stroke-width:0.6px;"/><ellipse cx="83.77" cy="57.407" rx="1.64" ry="1.56" style="fill:#ebebeb;stroke:#000;stroke-width:0.6px;"/><path d="M33.511,34.409l-1.552,-0l-2.539,5.674l-2.586,-5.674l-1.646,-0l3.542,7.241l0,4.75l1.38,-0l-0,-4.844l3.401,-7.147Z" style="fill:#30a635;fill-rule:nonzero;"/><path d="M42.383,40.412c-0,-1.003 -0.092,-1.896 -0.275,-2.68c-0.183,-0.784 -0.441,-1.445 -0.776,-1.983c-0.334,-0.538 -0.736,-0.948 -1.207,-1.23c-0.47,-0.283 -0.997,-0.424 -1.583,-0.424c-0.585,0 -1.113,0.139 -1.583,0.416c-0.47,0.277 -0.872,0.684 -1.207,1.222c-0.334,0.539 -0.59,1.199 -0.768,1.983c-0.177,0.784 -0.266,1.683 -0.266,2.696c-0,1.003 0.091,1.897 0.274,2.68c0.183,0.784 0.439,1.445 0.768,1.983c0.329,0.538 0.729,0.949 1.199,1.231c0.47,0.282 0.998,0.423 1.583,0.423c0.586,-0 1.113,-0.141 1.583,-0.423c0.471,-0.282 0.873,-0.693 1.207,-1.231c0.335,-0.538 0.593,-1.199 0.776,-1.983c0.183,-0.783 0.275,-1.677 0.275,-2.68Zm-1.443,0c0,1.578 -0.219,2.782 -0.658,3.613c-0.439,0.831 -1.019,1.246 -1.74,1.246c-0.71,0 -1.285,-0.413 -1.724,-1.238c-0.439,-0.826 -0.658,-2.033 -0.658,-3.621c-0,-1.588 0.219,-2.798 0.658,-3.628c0.439,-0.831 1.014,-1.247 1.724,-1.247c0.721,0 1.301,0.418 1.74,1.254c0.439,0.836 0.658,2.043 0.658,3.621Z" style="fill:#30a635;fill-rule:nonzero;"/><path d="M51.317,41.823l-0,-7.414l-1.395,-0l-0,7.508c-0,1.118 -0.175,1.954 -0.525,2.508c-0.35,0.554 -0.901,0.831 -1.654,0.831c-0.752,-0 -1.303,-0.275 -1.653,-0.823c-0.351,-0.549 -0.526,-1.388 -0.526,-2.516l0,-7.508l-1.379,-0l0,7.414c0,1.651 0.29,2.879 0.87,3.683c0.58,0.805 1.476,1.207 2.688,1.207c1.223,0 2.124,-0.397 2.704,-1.191c0.58,-0.794 0.87,-2.027 0.87,-3.699Z" style="fill:#30a635;fill-rule:nonzero;"/><path d="M70.518,34.409l-1.191,-0l-1.286,10.031l-1.316,-10.031l-1.615,-0l-1.285,10.031l-1.285,-10.031l-1.223,-0l1.787,11.991l1.317,-0l1.489,-10.377l1.536,10.377l1.254,-0l1.818,-11.991Z" style="fill:#30a635;fill-rule:nonzero;"/><path d="M77.712,46.4l0,-1.38l-1.912,0l0,-9.216l1.912,-0l0,-1.379l-5.188,-0l0,1.379l1.912,-0l0,9.216l-1.912,0l0,1.38l5.188,-0Z" style="fill:#30a635;fill-rule:nonzero;"/><path d="M87.713,46.4l-0,-11.975l-1.254,-0l-0,9.812l-3.762,-9.812l-1.771,-0l-0,11.975l1.238,-0l-0,-9.656l3.793,9.656l1.756,-0Z" style="fill:#30a635;fill-rule:nonzero;"/><path d="M94.249,37.936l-0,-3.527l-1.458,-0l0,3.527l0.361,4.89l0.768,-0l0.329,-4.89Zm0.298,8.464l-0,-2.571l-2.069,0l-0,2.571l2.069,-0Z" style="fill:#30a635;fill-rule:nonzero;"/></g></svg>