<?xml version="1.0" encoding="UTF-8" standalone="no"?><!DOCTYPE svg PUBLIC "-//W3C//DTD SVG 1.1//EN" "http://www.w3.org/Graphics/SVG/1.1/DTD/svg11.dtd"><svg width="100%" height="100%" viewBox="0 0 109 144" version="1.1" xmlns="http://www.w3.org/2000/svg" xmlns:xlink="http://www.w3.org/1999/xlink" xml:space="preserve" xmlns:serif="http://www.serif.com/" style="fill-rule:evenodd;clip-rule:evenodd;stroke-linecap:round;stroke-linejoin:round;stroke-miterlimit:1.5;"><rect id="Hangman0" x="0.01" y="0" width="108" height="144" style="fill:none;"/><g><path d="M102.939,130.244l-98.249,0" style="fill:none;stroke:#000;stroke-width:1.2px;"/><path d="M20.284,130.244l0,-115.56" style="fill:none;stroke:#000;stroke-width:1.2px;"/><path d="M20.284,14.684l44.627,-0" style="fill:none;stroke:#000;stroke-width:1.2px;"/><path d="M64.862,14.684l0,15.321" style="fill:none;stroke:#000;stroke-width:1.2px;"/></g><circle cx="64.862" cy="39.23" r="9.225" style="fill:none;stroke:#000;stroke-width:1.2px;"/><path d="M64.862,48.455l0,34.987" style="fill:none;stroke:#000;stroke-width:1.2px;"/><path d="M64.754,59.138l18.666,-7.268" style="fill:none;stroke:#000;stroke-width:1.2px;"/><path d="M64.97,59.138l-18.666,-7.268" style="fill:none;stroke:#000;stroke-width:1.2px;"/><path d="M64.754,83.442l-18.557,25.472l18.557,-25.472Z" style="fill:none;stroke:#000;stroke-width:1.2px;"/><path d="M64.97,83.442l18.557,25.472l-18.557,-25.472Z" style="fill:none;stroke:#000;stroke-width:1.2px;"/><path d="M59.715,44.39c4.511,-2.032 7.616,-1.654 10.509,0.121" style="fill:none;stroke:#000;stroke-width:0.6px;"/><ellipse cx="61.838" cy="36.077" rx="1.64" ry="1.56" style="fill:#ebebeb;stroke:#000;stroke-width:0.6px;"/><ellipse cx="69.038" cy="36.077" rx="1.64" ry="1.56" style="fill:#ebebeb;stroke:#000;stroke-width:0.6px;"/></svg>